<?xml version="1.0" standalone="no"?>
<!DOCTYPE svg PUBLIC "-//W3C//DTD SVG 20010904//EN"
 "http://www.w3.org/TR/2001/REC-SVG-20010904/DTD/svg10.dtd">
<svg version="1.0" xmlns="http://www.w3.org/2000/svg"
 width="1100.000000pt" height="1100.000000pt" viewBox="0 0 1100.000000 1100.000000"
 preserveAspectRatio="xMidYMid meet">
<metadata>
Created by potrace 1.14, written by Peter Selinger 2001-2017
</metadata>
<g transform="translate(0.000000,1100.000000) scale(0.100000,-0.100000)"
fill="#000000" stroke="none">
<path d="M0 5500 l0 -5360 5500 0 5500 0 0 5360 0 5360 -5500 0 -5500 0 0
-5360z m7394 3338 c50 -194 118 -299 231 -360 28 -14 103 -42 168 -61 65 -18
123 -39 129 -45 14 -14 -10 -25 -120 -52 -239 -59 -344 -167 -408 -419 -13
-52 -26 -97 -29 -99 -9 -9 -35 8 -35 23 0 34 -74 243 -100 285 -69 108 -162
167 -339 214 -52 14 -99 30 -104 35 -13 13 0 31 23 31 34 0 213 61 273 93 65
34 127 98 162 167 26 51 85 231 85 258 0 10 3 22 7 25 19 20 32 -2 57 -95z
m-1354 -477 c14 -10 31 -35 38 -56 46 -137 -152 -217 -214 -87 -52 110 76 213
176 143z m-2811 -317 c14 -98 26 -180 27 -182 1 -1 73 -12 160 -23 197 -25
204 -26 204 -43 0 -10 -18 -17 -57 -22 -32 -4 -114 -14 -183 -23 l-125 -16
-25 -179 c-23 -163 -36 -207 -54 -178 -3 5 -15 85 -26 178 -12 93 -25 172 -28
176 -4 3 -77 13 -162 22 -85 10 -166 22 -180 27 -24 10 -24 11 -5 25 10 8 33
14 49 14 33 0 297 38 302 43 2 1 12 77 24 167 23 186 27 203 43 197 7 -2 22
-75 36 -183z m5100 -130 c27 -34 27 -68 -1 -94 -49 -46 -138 -3 -123 60 14 60
88 80 124 34z m-2409 -363 c267 -46 447 -104 695 -228 115 -57 302 -174 421
-263 l40 -31 100 15 c203 31 406 56 449 56 33 0 45 -4 45 -15 0 -8 -2 -15 -4
-15 -2 0 -85 -9 -185 -20 -194 -21 -361 -49 -360 -59 0 -3 16 -19 36 -35 l35
-30 71 12 c246 40 589 66 872 66 348 -1 548 -25 765 -94 158 -50 257 -105 341
-189 107 -108 146 -219 129 -371 -24 -212 -155 -426 -429 -701 -244 -244 -559
-487 -953 -734 -31 -19 -33 -24 -44 -115 -34 -266 -140 -586 -277 -835 -103
-188 -154 -262 -294 -426 -382 -449 -919 -745 -1513 -835 -144 -22 -540 -25
-675 -6 -186 27 -487 107 -615 165 -282 125 -516 274 -700 443 -53 49 -87 73
-98 70 -97 -28 -496 -65 -782 -73 -324 -9 -566 12 -793 68 -324 79 -518 237
-558 454 -35 192 77 449 309 710 251 282 567 534 1078 857 40 26 41 28 48 98
10 98 68 332 116 467 265 738 874 1311 1630 1532 122 35 336 77 465 90 167 18
440 6 635 -28z m2080 -446 c1 -11 -167 -32 -176 -22 -4 3 -4 13 0 22 5 13 21
15 91 13 48 -2 85 -7 85 -13z m-5351 -594 c24 -80 69 -128 141 -150 83 -24 93
-30 81 -45 -7 -8 -28 -17 -48 -21 -98 -18 -154 -71 -180 -167 -22 -89 -39 -85
-68 16 -22 78 -62 118 -140 142 -72 21 -98 40 -75 54 8 5 24 10 35 10 30 0
117 44 141 71 12 13 30 51 40 84 19 65 32 88 44 80 4 -3 17 -36 29 -74z m6721
-537 c0 -58 -282 -373 -505 -565 -236 -202 -625 -489 -664 -489 -34 0 4 36
126 120 173 119 339 244 468 351 150 124 379 360 474 487 47 61 88 112 93 112
4 0 8 -7 8 -16z m-6663 -681 c2 -6 -23 -30 -56 -52 -76 -52 -91 -58 -91 -37 0
18 117 109 133 103 6 -2 12 -8 14 -14z m-267 -57 c0 -6 -24 -29 -52 -51 -29
-21 -105 -81 -169 -132 -64 -51 -119 -93 -123 -93 -43 0 83 117 289 268 40 29
55 32 55 8z m6330 -41 c0 -13 -236 -197 -332 -259 -25 -16 -48 -15 -48 3 0 4
57 48 128 98 70 50 150 109 177 131 53 44 75 52 75 27z m-6450 -188 c0 -7 -14
-23 -30 -36 -127 -93 -397 -355 -478 -463 -20 -27 -40 -48 -44 -48 -69 0 157
249 441 489 83 69 111 84 111 58z m5890 -221 c-22 -22 -132 -86 -147 -86 -22
0 -14 24 15 42 116 71 128 76 137 67 6 -6 4 -14 -5 -23z m336 -229 c2 -7 15
-89 27 -182 26 -197 0 -174 213 -199 163 -20 174 -23 174 -42 0 -8 -1 -14 -2
-15 -2 0 -84 -10 -183 -22 l-180 -22 -22 -174 c-21 -165 -32 -207 -51 -186 -5
6 -18 86 -30 179 -12 93 -24 172 -27 176 -2 4 -79 15 -170 25 -154 17 -211 32
-193 51 5 4 87 18 184 30 97 13 177 24 179 26 1 2 12 75 24 163 12 88 24 170
27 183 5 24 22 30 30 9z m-5041 -1318 c0 -14 -42 -24 -130 -31 -40 -2 -50 0
-53 14 -3 13 9 17 65 23 37 3 75 8 83 9 24 5 35 0 35 -15z m-642 -13 c306 -1
337 -3 337 -17 0 -15 -22 -18 -166 -24 -239 -11 -634 11 -659 36 -19 19 14 26
83 16 37 -6 219 -11 405 -11z m-775 -45 c147 -32 286 -52 442 -64 185 -15 201
-33 27 -31 -230 3 -593 69 -572 105 8 12 0 12 103 -10z m6001 -205 c30 -16 51
-53 51 -92 0 -41 -59 -94 -105 -94 -75 0 -120 83 -83 156 20 42 86 56 137 30z
m-4658 -286 c23 0 49 -42 49 -80 0 -89 -107 -120 -156 -45 -38 58 20 147 84
129 8 -2 18 -4 23 -4z m885 -462 c40 -45 56 -96 43 -143 -21 -76 -92 -123
-171 -112 -80 11 -128 68 -128 154 0 45 5 58 32 89 41 47 61 54 132 51 53 -3
62 -7 92 -39z"/>
<path d="M7331 8778 c-22 -86 -74 -189 -125 -245 -52 -57 -142 -107 -255 -140
-33 -10 -61 -20 -61 -23 0 -3 40 -18 88 -34 155 -51 229 -107 288 -218 21 -40
48 -107 60 -148 12 -41 25 -68 28 -60 3 8 19 55 35 103 63 183 148 262 348
328 40 13 73 26 73 29 0 3 -26 13 -58 22 -89 26 -185 72 -227 109 -58 51 -107
134 -139 237 -17 50 -33 92 -36 92 -3 0 -12 -24 -19 -52z"/>
<path d="M5935 8338 c-74 -43 -49 -151 35 -151 82 0 111 111 39 148 -33 18
-47 18 -74 3z"/>
<path d="M3188 8020 c-3 -8 -11 -53 -17 -99 -6 -47 -16 -88 -23 -92 -6 -4 -49
-11 -95 -14 -46 -4 -86 -11 -88 -15 -3 -5 35 -14 85 -21 49 -7 94 -16 100 -19
5 -3 15 -44 21 -91 16 -123 21 -125 34 -15 7 54 18 101 24 105 6 4 52 13 101
20 50 7 88 16 85 21 -2 4 -42 11 -88 15 -46 3 -89 10 -96 14 -8 5 -18 49 -25
107 -7 55 -15 92 -18 84z"/>
<path d="M5295 7544 c-16 -2 -73 -9 -125 -15 -184 -21 -453 -97 -645 -182
-708 -315 -1231 -960 -1389 -1714 -59 -278 -59 -677 -2 -977 61 -316 219 -677
409 -934 l39 -54 47 7 c169 24 593 115 871 187 335 86 873 252 1150 355 196
72 286 106 324 121 l39 15 -6 90 c-3 49 -16 150 -28 223 l-22 134 -463 0
c-432 0 -463 -1 -468 -17 -10 -34 -36 -239 -46 -358 -15 -174 2 -165 -299
-165 -297 0 -286 -7 -270 176 51 581 378 1593 664 2054 73 117 122 171 183
202 45 22 57 23 247 23 221 -1 240 -5 311 -67 47 -41 135 -174 202 -305 50
-98 53 -101 96 -112 99 -25 166 -6 166 47 0 58 -53 92 -146 92 -32 0 -46 6
-72 33 -18 18 -32 40 -32 49 0 30 90 85 150 91 80 9 106 59 57 105 -29 27
-101 30 -165 5 -43 -16 -45 -16 -58 2 -8 10 -21 38 -31 63 l-17 45 29 23 c75
60 294 74 385 24 113 -63 131 -202 36 -296 l-41 -41 43 -26 c76 -47 102 -147
62 -235 -40 -88 -143 -151 -261 -160 l-68 -5 18 -36 c30 -58 145 -373 199
-546 91 -288 168 -595 202 -803 8 -48 16 -72 24 -68 316 138 817 389 1026 516
25 15 93 55 152 90 59 35 118 73 132 84 l24 21 -19 145 c-54 419 -211 799
-473 1150 -97 130 -338 370 -468 466 -195 145 -438 275 -648 349 -116 40 -343
97 -460 115 -74 11 -507 22 -565 14z m463 -210 c12 -2 22 -11 22 -20 0 -13
-11 -14 -72 -8 -73 6 -95 15 -85 31 5 8 92 7 135 -3z m386 -75 c115 -34 294
-107 396 -161 128 -67 290 -176 290 -194 0 -22 -19 -17 -69 19 -155 111 -368
217 -566 282 -90 29 -131 47 -133 59 -4 20 -4 20 82 -5z m-1914 -347 c0 -4
-39 -40 -87 -79 -49 -39 -119 -101 -157 -137 -38 -36 -73 -66 -78 -66 -4 0 -8
8 -8 19 0 31 276 271 312 271 10 0 18 -4 18 -8z m2902 -267 c84 -90 178 -208
175 -219 -8 -25 -29 -12 -73 46 -27 35 -79 98 -116 140 -38 42 -68 82 -68 87
0 24 25 8 82 -54z m-3312 -117 c0 -7 -14 -29 -30 -48 -20 -24 -32 -32 -39 -25
-8 8 -3 22 14 48 25 36 55 50 55 25z m-146 -197 c3 -5 -12 -38 -33 -73 -60
-99 -135 -254 -176 -361 -68 -182 -106 -352 -133 -597 -5 -48 -11 -65 -22 -65
-21 0 -16 90 16 275 41 242 154 554 266 734 17 28 37 61 45 74 14 23 28 28 37
13z m3768 -109 c38 -68 44 -107 12 -82 -22 19 -86 139 -79 151 12 19 27 3 67
-69z m-4095 -1377 c12 -96 7 -130 -14 -103 -11 14 -33 138 -33 183 0 20 4 26
17 23 14 -2 20 -23 30 -103z m2490 -471 c3 -9 -102 -57 -174 -78 -25 -8 -39 7
-20 22 19 16 160 71 176 69 8 -1 16 -7 18 -13z m-287 -108 c0 -18 -338 -131
-755 -253 -215 -63 -630 -162 -639 -153 -18 18 10 30 157 65 315 75 938 258
1182 348 42 15 55 14 55 -7z"/>
<path d="M7920 6964 c-247 -17 -677 -61 -688 -70 -2 -1 47 -59 109 -129 111
-123 114 -126 149 -121 122 19 220 27 409 35 443 19 729 -32 899 -161 42 -31
61 -55 84 -105 28 -58 30 -72 26 -136 -20 -282 -376 -643 -1058 -1074 -291
-183 -967 -536 -1198 -624 l-62 -24 6 -121 c7 -122 7 -122 -19 -148 l-26 -26
-242 0 -243 0 -26 25 -27 26 -188 -71 c-420 -158 -991 -338 -1385 -435 -236
-58 -491 -115 -585 -130 -55 -8 -145 -24 -200 -35 -226 -43 -622 -80 -860 -80
-378 0 -649 65 -769 185 -67 68 -81 104 -81 215 0 92 1 98 42 177 60 118 135
213 281 354 183 177 414 351 728 548 l51 32 7 91 c3 50 6 117 6 150 l0 58 -82
-51 c-45 -28 -124 -81 -177 -117 -624 -429 -971 -784 -1098 -1122 -24 -65 -28
-89 -28 -180 0 -97 2 -110 31 -171 104 -219 409 -350 909 -390 300 -24 909 19
1300 92 314 58 779 162 945 209 36 11 160 46 275 79 295 84 624 194 910 303
50 19 133 51 185 71 342 130 917 392 1235 564 216 117 468 264 625 364 455
291 844 624 1054 903 76 101 157 261 179 352 40 169 5 306 -107 417 -130 128
-348 211 -662 252 -114 15 -518 27 -634 19z"/>
<path d="M7750 6639 c-129 -10 -259 -25 -266 -32 -3 -2 24 -46 59 -98 214
-314 361 -709 407 -1089 6 -52 12 -96 14 -97 4 -5 194 124 286 195 326 250
533 473 600 648 31 81 33 184 3 240 -48 90 -161 160 -331 204 -142 37 -486 50
-772 29z m595 -93 c92 -17 117 -29 99 -45 -5 -6 -39 -3 -84 6 -56 12 -150 16
-375 18 -249 2 -300 5 -300 16 0 20 108 27 360 24 141 -2 240 -8 300 -19z"/>
<path d="M5958 6232 c-18 -22 -48 -89 -48 -107 0 -13 36 -45 52 -45 5 0 3 9
-4 19 -10 16 -7 30 14 80 20 45 23 61 13 65 -7 2 -19 -3 -27 -12z"/>
<path d="M5458 6114 c-70 -116 -139 -275 -216 -494 -50 -141 -112 -347 -112
-369 0 -8 105 -11 361 -11 338 0 360 1 355 18 -91 320 -196 603 -299 807 l-54
108 -35 -59z"/>
<path d="M6098 6043 c6 -2 18 -2 25 0 6 3 1 5 -13 5 -14 0 -19 -2 -12 -5z"/>
<path d="M2964 4979 c-400 -259 -617 -433 -788 -630 -228 -265 -264 -447 -114
-585 57 -52 130 -87 249 -119 126 -33 250 -44 494 -45 233 0 564 26 707 56
l28 6 -44 61 c-82 116 -195 320 -251 452 -100 237 -184 597 -185 793 0 34 -4
62 -9 62 -5 0 -44 -23 -87 -51z m-755 -912 c-10 -51 -9 -74 0 -110 31 -110
172 -188 396 -220 67 -9 90 -16 90 -27 0 -38 -272 15 -373 72 -108 61 -156
133 -155 233 0 67 27 145 44 128 7 -7 6 -31 -2 -76z"/>
<path d="M7800 4807 c-151 -90 -494 -275 -645 -347 -828 -395 -1594 -678
-2395 -883 -307 -79 -718 -167 -852 -182 -32 -4 -58 -11 -58 -16 0 -13 152
-141 258 -216 227 -162 479 -283 742 -357 569 -160 1156 -110 1703 144 456
211 858 599 1100 1060 135 257 213 508 261 838 2 12 0 22 -3 22 -3 -1 -53 -29
-111 -63z m-712 -498 c-2 -6 -19 -20 -38 -30 -45 -25 -305 -142 -395 -179 -38
-16 -135 -56 -215 -88 -139 -57 -160 -63 -160 -41 0 10 18 19 150 73 204 83
335 139 475 205 146 68 191 83 183 60z m253 -423 c-30 -56 -187 -239 -292
-342 -112 -108 -282 -244 -306 -244 -32 0 -5 30 84 95 53 39 151 124 217 190
107 107 147 154 260 308 20 27 31 36 39 28 7 -7 7 -18 -2 -35z m-1221 19 c0
-16 -71 -52 -122 -62 -21 -4 -28 -2 -28 10 0 9 25 24 68 40 83 30 82 30 82 12z
m500 -677 c0 -12 -120 -81 -137 -79 -24 3 -1 28 52 57 65 36 85 41 85 22z
m-1870 -139 c190 -72 456 -129 606 -129 63 0 84 -7 84 -28 0 -37 -367 16 -596
87 -136 43 -264 95 -264 109 0 16 14 23 29 16 9 -4 72 -29 141 -55z m1518 -25
c-4 -23 -153 -68 -338 -104 -85 -17 -165 -33 -178 -36 -21 -4 -43 19 -30 32 3
2 63 13 134 24 109 16 368 81 383 95 11 12 32 4 29 -11z"/>
<path d="M2595 6451 c-21 -48 -65 -90 -114 -111 l-33 -13 38 -20 c53 -26 88
-61 109 -108 l18 -40 29 53 c30 54 34 59 101 94 l40 22 -36 11 c-43 15 -93 64
-116 115 l-17 39 -19 -42z"/>
<path d="M8528 4360 c-4 -14 -10 -60 -13 -102 -4 -43 -12 -82 -19 -86 -6 -5
-38 -13 -71 -16 -148 -17 -156 -29 -26 -41 42 -4 83 -11 92 -16 13 -6 19 -30
24 -91 11 -127 20 -133 33 -22 8 65 18 103 27 110 9 6 43 15 78 18 34 4 75 10
91 13 26 6 27 7 10 14 -11 4 -55 10 -97 14 -42 4 -81 13 -86 19 -5 6 -16 56
-23 111 -9 69 -16 92 -20 75z"/>
<path d="M7996 2939 c-44 -35 -31 -92 27 -112 19 -7 56 8 69 27 15 22 7 63
-15 84 -29 27 -47 28 -81 1z"/>
<path d="M4165 2230 c-95 -39 -93 -177 3 -217 69 -29 149 18 158 94 6 47 -11
80 -55 110 -35 24 -71 28 -106 13z"/>
</g>
</svg>
